<?xml version="1.0" encoding="UTF-8" standalone="no"?>
<!-- Created with Inkscape (http://www.inkscape.org/) -->

<svg
   width="210mm"
   height="297mm"
   viewBox="10 15 192 243"
   version="1.1"
   id="svg1"
   inkscape:version="1.4.3 (0d15f75042, 2025-12-25)"
   sodipodi:docname="postman_james.svg"
   xmlns:inkscape="http://www.inkscape.org/namespaces/inkscape"
   xmlns:sodipodi="http://sodipodi.sourceforge.net/DTD/sodipodi-0.dtd"
   xmlns="http://www.w3.org/2000/svg"
   xmlns:svg="http://www.w3.org/2000/svg">
  <sodipodi:namedview
     id="namedview1"
     pagecolor="#ffffff"
     bordercolor="#000000"
     borderopacity="0.25"
     inkscape:showpageshadow="2"
     inkscape:pageopacity="0.0"
     inkscape:pagecheckerboard="0"
     inkscape:deskcolor="#d1d1d1"
     inkscape:document-units="mm"
     inkscape:zoom="0.74386223"
     inkscape:cx="396.57881"
     inkscape:cy="453.71305"
     inkscape:window-width="1920"
     inkscape:window-height="1043"
     inkscape:window-x="0"
     inkscape:window-y="201"
     inkscape:window-maximized="1"
     inkscape:current-layer="layer4" />
  <defs
     id="defs1" />
  <g
     inkscape:groupmode="layer"
     id="layer4"
     inkscape:label="Shoulders"
     style="display:inline"
     sodipodi:insensitive="true">
    <path
       style="fill:#000080;stroke:#000000;stroke-width:1.865;stroke-dasharray:none"
       d="m 17.784431,251.82754 c 2.063256,-6.7435 7.549614,-11.68011 11.382037,-17.42874 0.588235,-0.88236 0.86071,-1.94624 1.422754,-2.84551 0.177729,-1.0545 1.264788,-1.36365 1.778442,-2.13413 2.383626,-3.57544 -1.825289,1.29761 2.489822,-3.55689 0.668374,-0.75192 1.57608,-1.29705 2.134132,-2.13413 0.20797,-0.31196 0.137763,-0.76197 0.355687,-1.06706 2.178534,-3.04995 5.416706,-5.0153 7.82515,-7.82515 1.975969,-2.3053 3.689458,-4.77862 5.691018,-7.11378 0.444926,-0.51908 4.622541,-4.62113 4.979641,-5.33533 0.05302,-0.10604 -0.08384,-0.27185 0,-0.35569 0.265115,-0.26511 0.774295,-0.12147 1.067064,-0.35568 1.57679,-1.26143 0.557948,-1.03021 2.489822,-2.13413 1.480053,-0.84575 3.411323,-0.83464 4.979641,-1.42276 2.007693,-0.75288 4.237413,-1.86351 6.402395,-2.13413 1.8688,-0.2336 3.818922,0.20801 5.691016,0 0.485859,-0.054 0.948504,-0.23713 1.422754,-0.35569 1.422755,-0.11856 2.842776,-0.2765 4.268264,-0.35569 2.536719,-0.14093 5.317315,0.41797 7.82515,0 4.388246,-0.73137 9.040153,-0.35569 13.51617,-0.35569 1.19438,0 2.7103,0.17176 3.91257,0 2.30663,-0.32952 5.15917,-0.93326 7.46946,-0.35569 2.3453,0.58633 4.80299,0.76253 7.11378,1.42276 1.3071,0.37346 2.53151,1.14654 3.91257,1.42275 0.23252,0.0465 0.48642,-0.075 0.71138,0 0.15907,0.053 0.19662,0.30267 0.35569,0.35569 0.22495,0.075 0.48642,-0.075 0.71137,0 0.3506,0.11687 2.11326,1.76453 2.13414,1.77845 0.82931,0.55287 1.88444,0.93091 2.48982,1.77844 0.40183,0.56256 0.61715,1.25354 1.06706,1.77844 0.2782,0.32457 0.76479,0.4091 1.06707,0.71138 0.30228,0.30227 0.44433,0.73325 0.71137,1.06706 2.55846,3.19808 -0.90061,-1.25629 1.42276,1.06707 0.18746,0.18746 0.20863,0.49079 0.35569,0.71138 0.63841,0.95762 1.8514,1.53219 2.48982,2.48982 0.29412,0.44117 0.39324,0.99857 0.71138,1.42275 0.55596,0.74129 1.24043,1.38092 1.77844,2.13413 2.228,3.11921 3.78393,8.31334 4.62395,12.09342 -0.60452,0.96276 0.5437,0.91973 0.71138,1.42275 0.22806,0.68418 0.0332,1.48908 0.35569,2.13413 1.18303,2.36607 2.05334,4.49489 2.48982,7.11378 0.29955,1.79729 0.62554,0.36805 1.06706,2.13413 0.13945,0.55779 -0.11287,1.21408 0,1.77844 0.14706,0.73529 0.43289,1.43791 0.71138,2.13413 0.39928,0.99819 1.07277,1.79556 1.42275,2.84551 0.075,0.22496 -0.16767,0.54371 0,0.71138 0.0838,0.0838 0.27186,-0.0838 0.35569,0 0.16768,0.16767 -0.16767,0.5437 0,0.71137 0.0838,0.0838 0.27185,-0.0838 0.35569,0 0.49503,0.49503 0.71138,2.1916 0.71138,2.84551"
       id="path13"
       inkscape:label="Jacket" />
    <g
       inkscape:groupmode="layer"
       id="layer8"
       inkscape:label="Shirt"
       style="display:inline">
      <path
         style="display:inline;fill:#000000;stroke:#000000;stroke-width:1.865;stroke-dasharray:none"
         d="m 62.956886,204.52096 c 1.140442,-0.37718 4.958673,2.32707 5.691018,2.48982 0.933122,0.20736 1.908186,0.16822 2.845509,0.35569 1.636702,0.32734 4.120182,2.41578 5.691016,3.20119 0.130244,0.0651 2.244513,0.82176 2.489822,1.06707 0.264961,0.26496 0.510399,1.22178 0.711377,1.42275 0.474252,0.47425 0.355687,-0.59281 0.355687,0.35569"
         id="path21"
         inkscape:label="Collar2" />
      <path
         style="display:inline;fill:#000000;stroke:#000000;stroke-width:1.865;stroke-dasharray:none"
         d="m 92.123351,214.12455 c 3.017396,-1.60912 6.568594,-2.03939 9.603599,-3.55689 3.94199,-1.971 0.98002,-0.95151 4.97964,-2.48982 1.15532,-0.44435 2.41913,-0.57946 3.55688,-1.06706 3.09699,-1.32729 -1.56823,-0.16169 2.84551,-1.42276 0.228,-0.0651 0.48642,0.075 0.71138,0 1.31857,-0.43953 -0.43357,-0.35569 0.71137,-0.35569"
         id="path22"
         inkscape:label="Collar1" />
      <path
         style="display:inline;fill:#ffffff;stroke:#000000;stroke-width:1.865;stroke-dasharray:none"
         d="m 63.668263,254.31737 c 0,-1.76198 1.442918,-3.89453 2.134132,-5.33534 0,-1.72963 0.441384,-7.56806 0,-8.89221 -0.08384,-0.25151 -0.3037,-0.45141 -0.35569,-0.71138 -0.501613,-2.50806 0.501613,-5.31709 0,-7.82515 -0.05199,-0.25997 -0.291387,-0.45418 -0.355687,-0.71138 -0.223179,-0.8927 0.223176,-1.9528 0,-2.84551 -0.26814,-1.07255 -0.196046,-1.37231 -0.35569,-2.48982 -0.883147,-6.18203 0.244782,5.04855 -0.711377,-3.55688 -0.07856,-0.70703 0.100605,-1.42991 0,-2.13413 -0.34752,-2.43265 -1.304025,-4.74169 -1.778442,-7.11378 -0.159605,-0.79801 0.159602,-1.6918 0,-2.48982 -0.647295,-3.23647 -0.409207,-6.68562 0,-9.95928 0.143267,-1.14614 -0.194305,-1.74552 0.355687,-2.84551 0.42975,-0.8595 1.703695,-0.28094 2.134132,-0.71137 0.08384,-0.0838 -0.08384,-0.27189 0,-0.35569 0.08664,-0.0867 2.808579,-0.93619 3.201199,-1.06707 0.848606,-0.28287 1.231818,-0.76629 2.134132,-1.06707 0.496091,-0.16536 2.575668,-0.57645 2.845509,-0.71137 0.106045,-0.053 -0.08384,-0.27189 0,-0.35569 0.419182,-0.41918 1.197139,0.11626 1.778442,0 0.632761,-0.12655 1.248079,-0.53459 1.778442,-0.71138 0.813673,-0.27122 1.8602,0.0409 2.489821,0.35569 0.380733,0.19037 2.31548,0 2.48982,0 2.15126,0 4.628932,-0.30416 6.758085,0 3.232142,0.46173 -1.618679,0.35569 1.422754,0.35569 2.327625,0 6.307355,-0.44583 8.536527,0 2.153371,0.43069 0.147371,0.35569 1.778442,0.35569 2.693059,0 12.356089,-0.4487 13.516169,0.71137 0.52242,0.52242 0.56845,4.83996 0.35569,5.69102 -0.0909,0.36374 -0.30919,0.69504 -0.35569,1.06707 -0.1401,1.12082 0,2.41119 0,3.55689 0,2.61766 -0.0141,5.23667 0.35569,7.82515 0.0691,0.48393 0.23712,0.9485 0.35569,1.42275 0.11856,0.35569 0.29408,0.69724 0.35568,1.06707 0.50984,3.05903 -0.18656,6.55938 -0.35568,9.60359 -0.0972,1.74972 0,3.57123 0,5.33533 0,6.30018 -0.0673,12.58861 0.35568,18.85149 -0.66198,1.64046 -0.71137,2.23581 -0.71137,3.55689"
         id="path16"
         inkscape:label="Shirt" />
    </g>
    <g
       inkscape:groupmode="layer"
       id="layer7"
       inkscape:label="Tie">
      <path
         style="display:inline;fill:#000000;stroke:#000000;stroke-width:1.865;stroke-dasharray:none"
         d="m 80.741315,218.03712 c -0.196077,0.9363 0.11765,1.90433 0,2.84551 -0.133167,1.06534 -0.179184,2.14218 -0.355687,3.2012 -0.04358,0.26151 -0.318196,0.44893 -0.35569,0.71138 -0.369451,2.58615 0,5.57042 0,8.18083 0,2.01335 -0.46459,3.71673 -0.711377,5.69102 -0.08823,0.70589 0.172535,1.444 0,2.13413 -0.403178,1.61272 -0.711378,3.25592 -0.711378,4.97964 0,0.75459 0.362461,6.40917 0.711378,6.75809 0.08093,0.0809 4.682429,0 5.335331,0 0.777816,0 3.447004,0.41063 4.268263,0 0.106045,-0.053 -0.08384,-0.27185 0,-0.35569 0.08384,-0.0838 0.237125,0 0.355687,0 0.118563,-0.11856 0.255085,-0.22155 0.35569,-0.35569 2.254144,-3.00552 1.742795,-6.79293 2.134132,-10.31497 0.305218,-2.74696 1.180801,-5.27741 1.422755,-8.18084 0.166669,-2.00002 -0.199668,-4.05002 0,-6.0467 0.03731,-0.37307 0.302664,-0.69591 0.355687,-1.06707 0.09503,-0.66521 0.243718,-4.4922 0,-4.97964 -0.05302,-0.10604 -0.271851,0.0838 -0.355687,0 -0.08384,-0.0838 0.03749,-0.24321 0,-0.35569 -0.285539,-0.85661 -0.663255,-1.6822 -1.067068,-2.48982 -0.579985,-1.15997 -1.852551,-1.57097 -2.489819,-2.84551 -0.05302,-0.10604 0.08384,-0.27185 0,-0.35568 -0.03557,-0.0356 -1.031496,-0.0356 -1.067067,0 -0.08384,0.0838 0.08384,0.27185 0,0.35568 -0.242284,0.24229 -3.411741,-0.16694 -3.912573,0 -1.230583,0.4102 -2.983881,1.82647 -3.912577,2.48982 z"
         id="path20"
         inkscape:label="Tongue" />
      <path
         style="display:inline;fill:#000000;stroke:#000000;stroke-width:1.865;stroke-dasharray:none"
         d="m 83.586824,207.72215 c -0.311248,1.83706 -1.419592,3.31239 -2.134131,4.97964 -0.505484,1.17947 -0.43393,1.76069 0,2.84551 0.291136,0.72784 0.614695,1.7301 1.422754,2.13413 0.43724,0.21862 0.958996,-0.2011 1.422755,-0.35568 3.179378,-1.0598 4.502118,-0.66423 6.046708,-4.26827 0.168015,-0.39204 0.46333,-0.6365 0.355687,-1.06706 -0.156387,-0.62556 -2.199405,-5.04492 -2.489819,-5.33533 -0.175956,-0.17596 -2.291996,-1.22493 -2.489822,-1.42276 -0.08384,-0.0838 0.08384,-0.27185 0,-0.35569 -0.226496,-0.22649 -2.404298,0.0136 -2.489819,0.35569 -0.203335,0.81334 0.237125,1.65988 0.355687,2.48982 z"
         id="path19"
         inkscape:label="Knot" />
    </g>
  </g>
  <g
     inkscape:groupmode="layer"
     id="layer2"
     inkscape:label="Face"
     style="display:inline"
     sodipodi:insensitive="true">
    <path
       style="fill:#ffaaaa;stroke:#000000;stroke-width:1.865;stroke-dasharray:none"
       d="m 57.621556,82.16407 c 0.237127,-0.47425 0.596355,-0.90515 0.711377,-1.422755 0.128601,-0.578696 -0.06547,-1.189254 0,-1.778442 0.472104,-4.248922 0.783873,-8.823113 3.201199,-12.4491 1.533951,-2.300931 5.243322,-6.078128 7.46946,-7.469463 1.888995,-1.180621 4.054287,-1.849297 6.046705,-2.845509 0.382355,-0.191177 0.674148,-0.542983 1.067067,-0.711377 4.754774,-2.03776 -2.574044,1.820555 3.201197,-1.067065 0.854969,-0.427484 1.611225,-1.046213 2.489821,-1.422754 2.104687,-0.90201 4.276342,-1.639401 6.402396,-2.489822 0.773938,-0.309576 2.710831,-0.644038 3.556886,-1.067065 5.073076,-2.536539 11.025296,-3.556886 16.717366,-3.556886 0.73225,0 1.7893,-0.233505 2.48982,0 3.24565,1.081884 6.88522,1.664166 9.95928,3.201196 0.61835,0.309177 1.16009,0.757894 1.77844,1.067068 1.24124,0.620617 2.67134,0.802137 3.91258,1.422754 1.00043,0.500216 1.91484,1.157999 2.84551,1.778442 1.9102,1.273469 2.45489,2.250318 4.26826,3.912576 1.5253,1.398194 3.80863,2.156061 4.97964,3.912574 0.80871,1.213069 2.55485,7.438892 2.84551,8.892217 0.093,0.46504 -0.0472,0.950854 0,1.422754 0.23033,2.303339 1.04344,4.482209 1.42275,6.758083 0.50125,3.007453 0.6857,6.196976 1.06707,9.247905 0.68821,5.505677 0.71138,10.806136 0.71138,16.361679 0,3.19183 0.35408,6.77257 0,9.95928 -0.44827,4.03438 -1.15815,8.06149 -1.77845,12.09341 -0.45464,2.95516 -0.69477,5.98029 -1.42275,8.89222 -0.41869,1.67475 -1.00406,3.30488 -1.42275,4.97964 -0.75086,3.00342 -1.63781,5.91016 -2.48982,8.89221 -0.4029,1.41012 -0.46021,2.93318 -1.06707,4.26827 -0.39555,0.8702 -0.99527,1.63485 -1.42276,2.48982 -0.97481,1.94962 -1.4746,4.1178 -2.48981,6.0467 -0.71999,1.36797 -1.73908,2.56124 -2.48983,3.91258 -0.43851,0.78931 -0.59383,1.72081 -1.06706,2.48982 -1.01915,1.65611 -2.46144,3.01729 -3.55689,4.62395 -1.22532,1.79714 -3.01229,4.74351 -4.62395,6.75808 -1.5779,1.97238 -2.93555,4.17071 -4.62395,6.04671 -4.83643,5.37381 1.15923,-1.51492 -3.55689,3.2012 -2.63477,2.63477 -4.90823,5.50589 -8.18084,7.46946 -2.08664,1.25199 -4.31574,2.3049 -6.402391,3.55689 -3.917396,2.35043 -7.332609,4.93402 -11.737726,6.40239 -3.285537,1.09518 -10.13066,-2.98024 -12.4491,-4.26826 -2.164898,-1.20272 -4.371377,-2.07979 -6.402396,-3.55689 -0.81362,-0.59172 -1.348547,-1.50566 -2.134132,-2.13413 -0.20702,-0.16562 -0.523912,-0.16823 -0.711377,-0.35569 -0.76635,-0.76635 -2.273038,-5.18519 -2.489819,-5.69102 -0.663816,-1.5489 -1.510363,-3.06453 -2.134132,-4.62395 -1.609463,-4.02366 -2.559092,-8.25836 -3.556886,-12.4491 -0.452908,-1.90222 -1.194284,-3.74902 -1.422755,-5.69102 -0.572725,-4.86815 -1.277654,-15.17777 -0.711377,-20.27425 0.67087,-6.03783 1.728433,-12.05466 2.134132,-18.14012 0.174035,-2.61054 0.537218,-5.21278 0.711377,-7.82515 0.19644,-2.94662 0.02935,-5.95518 0.355688,-8.89222 0.170852,-1.53766 0.570253,-3.07157 0.711377,-4.62395 0.203113,-2.23423 -0.20311,-4.52385 0,-6.75808 0.240517,-2.645673 0.35569,-5.165869 0.35569,-7.825151 0,-2.131611 0.403987,-5.805215 0,-7.82515 -0.198668,-0.993328 -0.711377,-1.897004 -1.067067,-2.845509 z"
       id="path9"
       inkscape:label="Skin" />
    <path
       style="fill:none;stroke:#000000;stroke-width:1.865;stroke-dasharray:none"
       d="m 63.668264,177.13293 c 0.829939,0.11857 1.686811,0.11479 2.489819,0.35569 1.836338,0.5509 2.974207,2.37633 4.623953,3.2012 2.62105,1.31052 5.355334,1.06706 8.180837,1.06706 1.536767,0 3.579813,0.44422 4.979641,-0.35568 5.027266,-2.87273 8.465918,-7.68393 11.026346,-12.80479 0.934287,-1.86858 1.214935,-3.85263 2.134132,-5.69102"
       id="path8"
       inkscape:label="Mouth" />
    <path
       style="display:inline;fill:none;stroke:#000000;stroke-width:1.865;stroke-dasharray:none"
       d="m 80.741315,117.73293 c -3.406923,1.47838 -6.972834,4.48302 -9.603591,7.11378 -0.654786,0.65478 -1.123659,1.47934 -1.778442,2.13413 -2.88389,2.88389 -2.05721,1.27373 -4.623954,4.26826 -2.195811,2.56178 -3.904739,5.49652 -5.335328,8.53653 -0.933228,1.9831 -2.595338,4.86222 -2.845509,7.11377 -0.144023,1.29621 0,2.60838 0,3.91257 0,0.71138 -0.172535,1.444 0,2.13414 0.253984,1.01593 1.910943,3.49642 2.489819,4.26826 1.62219,2.16292 3.117503,4.44225 4.979641,6.40239 0.439753,0.4629 1.180616,0.4872 1.778444,0.71138 3.762508,1.41094 9.345367,-1.58926 12.093411,-2.84551 1.645955,-0.75243 3.064039,-1.92791 4.623954,-2.84551 0.595884,-0.35052 1.642861,-0.38915 1.778442,-1.06706 0.405307,-2.02654 0.20842,-3.01316 -1.422755,-3.55689"
       id="path5"
       inkscape:label="Nose" />
    <g
       inkscape:groupmode="layer"
       id="layer6"
       inkscape:label="Right Eye"
       style="display:inline">
      <path
         style="fill:#ffffff;stroke:#000000;stroke-width:1.865;stroke-dasharray:none"
         d="m 97.102992,82.875447 c 3.332818,-3.05566 5.438948,-7.081554 8.892218,-9.959279 0.38643,-0.322027 0.63032,-0.817499 1.06706,-1.067067 0.42444,-0.242536 0.97151,-0.167669 1.42276,-0.355688 0.97888,-0.407871 1.83947,-1.087408 2.84551,-1.422754 0.79534,-0.265115 1.66773,-0.191273 2.48982,-0.35569 0.73529,-0.147058 1.39181,-0.605332 2.13413,-0.711377 3.4427,-0.491816 7.10396,0.345876 9.60359,2.845509 0.18747,0.187465 0.16823,0.523912 0.35569,0.711377 0.53682,0.536816 1.24163,0.885939 1.77844,1.422755 0.41919,0.419182 0.64789,1.003572 1.06707,1.422754 0.30228,0.302276 0.76479,0.409099 1.06707,0.711377 0.18746,0.187466 0.19662,0.499285 0.35568,0.711378 1.86194,2.482582 1.77958,2.358564 3.55689,5.691018 0.55432,1.039347 1.95616,2.66678 2.13413,3.912573 0.4891,3.423664 -0.59228,6.635787 -1.06706,9.959282 -0.0838,0.586856 0.0838,1.191588 0,1.778444 -0.51093,3.576451 -2.33727,10.070891 -4.26827,13.160481 -1.46609,2.34574 -3.5396,3.99444 -5.33533,6.0467 -0.2815,0.32172 -0.4091,0.76479 -0.71137,1.06707 -1.04628,1.04627 -1.79242,0.71836 -3.2012,1.42275 -0.29994,0.14998 -0.42382,0.53885 -0.71138,0.71138 -2.88802,1.73281 -0.15187,-0.0679 -1.42275,0.35569 -2.33048,0.77683 -4.68573,1.29284 -7.11378,1.77844 -1.70242,0.34049 -4.3505,0.99408 -6.0467,0.71138 -0.36983,-0.0616 -0.69724,-0.29405 -1.06707,-0.35569 -0.35085,-0.0585 -0.72963,0.11248 -1.06706,0 -1.75715,-0.58571 -5.495845,-4.2336 -6.402398,-6.0467 -0.167674,-0.33535 -0.173609,-0.73932 -0.35569,-1.06707 -1.231974,-2.21756 -3.484943,-5.97074 -3.912573,-8.53653 -0.587637,-3.52582 0.499684,-6.91069 1.067064,-10.314968 0.158142,-0.948848 0.125082,-2.874846 0.35569,-3.912573 0.41116,-1.850229 1.315339,-3.342058 2.134132,-4.979641 0.698511,-1.397021 -0.152247,-4.319463 0.355687,-5.335331 0.530231,-1.060458 2.007143,-1.295765 2.845509,-2.134132 0.451479,-0.451472 0.328289,-1.267658 0.711379,-1.778442 0.69715,-0.929534 1.79267,-1.560287 2.48982,-2.489821 0.15907,-0.21209 0.16822,-0.523912 0.35569,-0.711378 1.42393,-1.423931 4.1238,-2.297527 6.04671,-2.489819 0.94379,-0.09438 1.99714,0.424183 2.8455,0 0.10605,-0.05302 -0.11247,-0.318196 0,-0.355687 0.56922,-0.189738 1.85543,0 2.48982,0 3.45442,0 -2.27112,0.106045 1.42276,-0.35569 0.70588,-0.08824 1.42567,0.0644 2.13413,0 1.44393,-0.131265 2.86359,-0.510709 4.26826,-0.711377 2.13804,-0.305433 4.57318,0 6.75809,0"
         id="path4"
         inkscape:label="Eyeball" />
      <path
         style="display:inline;fill:none;stroke:#000000;stroke-width:1.865;stroke-dasharray:none"
         d="m 108.48503,104.92814 c -0.23713,0.59282 -1.30419,1.54132 -0.71138,1.77845 0.59282,0.23712 1.06554,-2.3097 0.71138,-1.77845 -0.58824,0.88236 -0.90775,1.9185 -1.42276,2.84551 -0.12875,0.23175 -0.48443,0.94313 -0.35568,0.71138 0.64375,-1.15876 0.45944,-3.42499 1.77844,-3.55689 1.21462,-0.12146 1.39243,2.04316 1.77844,3.2012 0.18878,0.56634 -1.58697,2.84551 -2.13413,2.84551 -0.37493,0 0.16967,-0.74154 0.35569,-1.06707 0.22392,-0.39187 2.33946,-4.41862 3.20119,-3.55688 0.90499,0.90498 -1.36035,2.99943 -1.77844,3.55688 -0.0711,0.0948 -0.053,0.46174 0,0.35569 0.92347,-1.84694 -0.32241,-0.38896 1.06707,-1.77844"
         id="path7"
         inkscape:label="Itis" />
    </g>
    <g
       inkscape:groupmode="layer"
       id="layer5"
       inkscape:label="Left Eye">
      <path
         style="display:inline;fill:#ffffff;stroke:#000000;stroke-width:1.865;stroke-dasharray:none"
         d="m 61.889819,79.674251 c 3.643424,-2.465285 7.781761,-3.201199 12.093414,-3.201199 0.829939,0 1.671171,-0.136441 2.489819,0 2.400146,0.400026 3.957634,2.468089 5.691018,3.912576 2.313461,1.927884 4.277243,3.213769 6.046708,5.691018 0.462282,0.647197 0.645533,1.45968 1.067064,2.134132 0.127871,0.204592 0.973278,1.356397 1.067068,1.778442 0.181866,0.818404 0.228208,1.661205 0.355687,2.489821 0.119324,0.7756 0.501105,2.256005 0.35569,3.201197 -0.895432,5.820302 -3.784005,8.592842 -7.469463,12.804792 -1.77533,2.02895 -3.727682,3.88594 -6.046705,5.33533 -0.564793,0.35299 -1.939578,0.70024 -2.489822,1.06706 -0.279024,0.18602 -0.423817,0.53885 -0.711377,0.71138 -2.146999,1.2882 -0.1514,-0.18666 -1.778442,0.35569 -0.50302,0.16767 -0.912926,0.56571 -1.422754,0.71138 -0.342004,0.0977 -0.716217,-0.0585 -1.067065,0 -1.92758,0.32126 -4.736751,1.31777 -6.758085,0.71137 -3.057766,-0.91733 -6.773783,-2.56218 -9.247905,-4.62395 -1.377156,-1.14763 -0.910452,-0.92743 -1.778442,-2.48982 -0.43812,-0.78862 -1.81294,-2.59331 -2.134131,-3.55688 -0.224957,-0.67488 0,-1.42276 0,-2.13414 0,-1.18562 -0.117975,-2.37714 0,-3.55688 0.185563,-1.855649 1.553456,-3.948995 2.134131,-5.69102 1.261002,-3.783009 2.280746,-7.685767 5.691019,-9.959281 0.679577,-0.453052 1.079253,-1.358932 1.778441,-1.778445 0.477721,-0.286631 2.076413,-0.556347 2.489822,-0.711377 0.49647,-0.186174 0.919734,-0.543703 1.422755,-0.711377 0.224956,-0.07499 0.491209,0.08807 0.711377,0 0.396909,-0.158763 0.661516,-0.576194 1.067064,-0.711377 0.337437,-0.112478 0.718286,0.06976 1.067068,0 1.431332,-0.286266 0.163422,-0.259554 1.067064,-0.711378 1.262957,-0.631478 3.070389,-0.468127 4.268264,-1.067064 0.470164,-0.235083 9.126961,-0.673444 9.603592,-0.35569 0.387566,0.258379 1.067067,0.713107 1.067067,1.067067"
         id="path3"
         inkscape:label="Eyeball" />
      <path
         style="display:inline;fill:none;stroke:#000000;stroke-width:1.55007;stroke-dasharray:none"
         d="m 65.585045,102.33306 c -0.390295,0.4976 -0.771027,1.01488 -1.170883,1.49282 -0.353256,0.42222 -1.248943,0.9952 -0.936707,1.4928 0.664647,1.05924 1.227484,-2.45963 2.10759,-2.98562 0.602706,-0.36019 1.314534,0.23746 1.873413,0.74641 0.151549,0.13801 -0.122434,0.53271 -0.234176,0.74641 -0.565369,1.08122 -1.298677,1.91701 -1.873414,2.98561 -0.183162,0.34056 -0.269342,0.80245 -0.468353,1.1196 -0.0552,0.0879 -0.06694,-0.3092 0,-0.3732 0.360455,-0.34466 0.821122,-0.3748 1.170883,-0.7464 1.065242,-1.13177 1.995467,-2.56197 3.044298,-3.73202 0.515567,-0.57515 1.105565,-0.96125 1.639236,-1.4928 0.09361,-0.0933 0.123785,-0.37321 0.234176,-0.37321 0.415045,0 -1.694794,3.44736 -1.873412,3.73202"
         id="path6"
         inkscape:label="Iris" />
    </g>
    <path
       style="fill:#ffaaaa;stroke:#000000;stroke-width:1.865;stroke-dasharray:none"
       d="m 137.6515,116.31018 c 4.42273,0.58431 5.95784,3.11258 6.75808,7.11377 0.40714,2.03571 0.57074,0.0498 0.35569,2.84551 -0.29413,3.82369 -0.31085,1.90994 -1.06707,5.69102 -0.47599,2.37997 -0.4632,5.52004 -2.13413,7.46946 -1.71294,1.99843 -4.49744,1.92466 -6.75808,2.48982 -1.63485,0.40871 -0.0807,0.35569 -1.06707,0.35569"
       id="path14"
       inkscape:label="Ear" />
  </g>
  <g
     inkscape:groupmode="layer"
     id="layer3"
     inkscape:label="Hat"
     style="display:inline"
     transform="translate(-3.9125749,-3.5568862)"
     sodipodi:insensitive="true">
    <path
       style="fill:#000080;stroke:#000000;stroke-width:1.865;stroke-dasharray:none"
       d="m 57.10385,61.074631 c -0.06202,-1.459642 1.02586,-2.685103 1.193822,-4.09791 0.0313,-0.263258 -0.165317,-0.518338 -0.142523,-0.78247 0.186462,-2.160716 1.99856,-6.860254 2.686099,-9.220296 0.1355,-0.46512 0.384654,-1.939849 0.696396,-2.390449 0.208139,-0.300847 0.632217,-0.07975 0.540463,-0.583499 -0.220714,-1.21175 -1.227674,-2.261005 -1.594567,-3.428336 -0.158984,-0.505833 -0.126061,-1.059105 -0.285045,-1.564941 -0.712866,-2.26811 -0.665871,-1.213324 -1.452043,-2.645865 -0.255098,-0.46483 -0.09825,-1.068703 -0.285045,-1.564941 -0.39192,-1.041152 -0.924671,-1.950133 -1.352558,-2.987356 -0.541916,-1.313635 0.102555,-0.261505 0.05645,-1.465455 -0.03734,-0.975176 -0.889191,-2.664075 -1.153587,-3.670345 -0.325903,-1.24035 -0.827688,-2.429987 -1.153589,-3.670341 -0.09528,-0.36262 0.08905,-0.77307 -0.04304,-1.123961 -0.0934,-0.248119 -0.45595,-0.308048 -0.583499,-0.540464 -0.0131,-0.02391 -0.371415,-1.199553 -0.384531,-1.223447 -0.114081,-0.207879 -0.5689,0.0089 -0.682984,-0.198971 -0.05704,-0.103943 0.135038,-0.228385 0.09949,-0.341493 -0.597568,-1.90127 -1.477769,-3.086258 0.368316,-5.07935 1.004271,-1.084241 2.977773,-2.49488 4.267253,-3.202543 0.374759,-0.205667 0.848689,-0.178863 1.223448,-0.384529 0.916589,-0.503022 1.983407,-1.4930679 3.086842,-1.6940519 2.338735,-0.4259855 4.993673,-0.239879 7.284239,-0.8417205 0.324339,-0.08522 0.548187,-0.451528 0.881956,-0.484015 3.194689,-0.310949 6.165352,0.872946 9.276745,1.2206435 1.91812,0.21435 3.86997,0.187674 5.76233,0.567285 2.2087,0.4430649 4.32557,1.2601439 6.48836,1.8902179 3.75642,1.094335 7.512839,2.188673 11.269252,3.283008 4.06355,1.183813 8.15164,2.668639 12.29373,3.581465 3.37263,0.743254 6.74056,1.433656 10.10226,2.202087 5.96495,1.36349 11.87594,3.459752 17.7576,5.173225 6.48836,1.89022 12.97672,3.780436 19.46508,5.670656 3.8514,1.122008 7.82311,2.08978 11.61074,3.382494 3.37192,1.150833 6.71267,2.920233 9.74734,4.692014 0.59238,0.345858 1.39012,0.551419 1.94948,0.938406 1.19064,0.823737 2.5322,2.022518 3.60048,2.901283 0.5791,0.476369 1.21537,0.880453 1.84998,1.279895 0.10034,0.06316 0.28445,-0.0045 0.34149,0.09949 0.057,0.103933 -0.15649,0.237563 -0.0995,0.341493 0.0123,0.02244 1.38457,1.58374 1.65101,1.96288 0.2458,0.349755 0.67491,0.581364 0.82551,0.981441 0.0835,0.221922 -0.20805,0.446029 -0.19897,0.682985 0.006,0.167544 0.23559,0.273425 0.24201,0.440978 0.0402,1.051294 -0.17543,2.866908 -0.75284,3.855903 -0.26735,0.457895 -0.83568,0.696901 -1.08093,1.166998 -0.16457,0.315339 -0.0961,0.731971 -0.29846,1.024479 -0.0675,0.0975 -0.23755,-0.15653 -0.34149,-0.09949 -0.29223,0.160375 -1.43082,1.778843 -1.72088,2.09199 -0.95156,1.027348 -2.26964,1.881239 -3.38529,2.718529 -0.6356,-0.227359 -0.45979,0.730493 -0.63995,0.924993 -0.43237,0.466798 -1.33154,0.501229 -1.76391,0.96803 -0.0805,0.08699 0.004,0.284441 -0.0995,0.341492 -0.1039,0.05705 -0.22484,-0.120728 -0.34149,-0.09949 -0.5465,0.09954 -2.8127,1.256711 -2.98736,1.352559 -0.23241,0.127551 -0.30804,0.455951 -0.54046,0.5835 -0.32339,0.177472 -1.81082,0.419989 -2.00592,0.52705 -0.1039,0.05706 -0.0189,0.254506 -0.0995,0.341494 -0.72928,0.787357 -0.14963,-0.05638 -0.78247,0.142521 -0.31992,0.100552 -0.55204,0.423924 -0.88196,0.484014 -0.23329,0.04249 -0.44603,-0.208048 -0.68298,-0.198969 -0.54907,0.02103 -1.01002,0.601478 -1.66443,0.626537 -0.86187,0.033 -3.22039,-0.814718 -3.95538,-0.411351 -0.14642,0.08035 -1.01396,3.480517 -1.19382,4.09791 -0.26275,0.901913 -0.42351,2.265236 -0.89537,3.073431 -1.51635,2.597175 0.78051,-2.697069 -1.2799,1.849984 -0.9407,2.076452 -1.1727,4.358987 -2.23171,6.388877 -0.16447,0.31536 -0.0567,0.76352 -0.29846,1.02447 -0.44786,0.48354 -1.69341,0.0687 -1.90643,0.18556 -0.1039,0.0571 0.0172,0.32025 -0.0995,0.3415 -0.23329,0.0425 -0.44674,-0.17859 -0.68299,-0.19898 -1.53956,-0.13285 -3.21782,-0.21027 -4.73785,-0.26883 -1.32523,-0.051 -2.72373,0.11988 -4.05487,-0.0699 -0.46951,-0.0669 -0.91065,-0.2653 -1.36598,-0.39794 -0.71615,-0.0851 -1.42992,-0.19342 -2.14843,-0.25542 -1.69128,-0.14595 -3.41574,-0.0305 -5.07935,-0.36832 -0.81335,-0.16516 -1.57449,-0.5447 -2.39045,-0.69639 -1.04332,-0.19396 -2.21439,-0.0866 -3.27241,-0.21238 -3.85454,-0.45825 -7.85881,-1.04651 -11.66718,-1.917043 -1.2393,-0.283285 -4.65307,-1.443022 -5.80538,-1.691248 -0.591,-0.127312 -1.21449,-0.03563 -1.80694,-0.155934 -3.11268,-0.632065 -6.16841,-1.797008 -9.2203,-2.686098 -5.23622,-1.525441 -10.472443,-3.050879 -15.708652,-4.576318 -7.21699,-2.102484 -14.5287,-4.833779 -21.955011,-6.025556 -0.798467,-0.12814 -1.58524,-0.600668 -2.390446,-0.696396 -1.132863,-0.134681 -2.18664,-0.170559 -3.272404,-0.212381 -0.507034,-0.01953 -1.651028,-0.815294 -2.048955,-0.596911 -0.103944,0.05704 0.0045,0.284451 -0.09949,0.341491 -0.207877,0.114085 -0.455324,-0.132647 -0.682985,-0.19897 -1.024475,-0.298455 -2.009445,-0.814365 -3.07343,-0.895366 -1.273279,-0.09693 -2.541912,0.247411 -3.812866,0.371119 z"
       id="path10"
       inkscape:label="Body" />
    <path
       style="fill:#000000;stroke:#000000;stroke-width:1.865;stroke-dasharray:none"
       d="m 164.25703,78.58341 c -0.35584,-0.474141 -0.61476,-1.039748 -1.06752,-1.422422 -1.80542,-1.525945 -10.1345,-3.322902 -12.53573,-4.022439 -7.05752,-2.056029 -14.11502,-4.112053 -21.17254,-6.16808 -3.24286,-0.944725 -6.8194,-1.552655 -9.90328,-2.885069 -1.30122,-0.562201 -2.14055,-1.521979 -3.45796,-2.118816 -4.29291,-1.944845 -9.05978,-3.0046 -13.46073,-4.662389 -3.528303,-1.329072 -6.652458,-2.913297 -10.387308,-3.767026 -2.52969,-0.578245 -4.35048,-0.707622 -6.78681,-0.865738 -2.12996,-0.138239 -3.42482,-0.549619 -5.66285,-0.908777 -1.279522,-0.205342 -2.675864,-0.206015 -3.955386,-0.411353 -0.940237,-0.150891 -5.13263,-0.35861 -5.861821,-0.225792 -0.30767,0.05604 -1.362199,0.173779 -1.564939,0.285044 -0.103944,0.05704 0.01716,0.320246 -0.09949,0.341491 -0.480934,0.0876 -0.97765,-0.08834 -1.465456,-0.05645 -1.927131,0.126006 -3.810783,0.41271 -5.719296,0.556679 -0.487465,0.03677 -0.984521,-0.14405 -1.465455,-0.05645 -0.1624,0.02958 -0.14453,0.940005 -0.298456,1.024478 -0.103944,0.05704 -0.237551,-0.156529 -0.341493,-0.09949 -0.103944,0.05704 0.0045,0.284452 -0.09949,0.341492 -0.103944,0.05704 -0.237552,-0.15653 -0.341492,-0.09949 -0.103943,0.05704 -0.0087,0.265177 -0.09949,0.341494 -0.972087,0.817637 -1.75885,0.836669 -1.82036,2.433484 -0.0215,0.558252 0.902751,3.501479 1.495083,3.769827 1.295963,0.587118 2.773576,0.673846 4.097909,1.193821 0.562733,0.220943 1.043597,0.622208 1.607976,0.83892 2.504061,0.961507 5.271693,1.535773 7.854328,2.288158 4.837418,1.409259 -0.132726,-0.145886 5.022897,1.833767 2.929586,1.1249 6.218286,1.81154 9.220306,2.686101 3.06495,0.892897 6.11157,1.964833 9.22029,2.686098 2.68555,0.623085 5.172253,0.703517 7.811293,1.164197 1.81895,0.317519 3.51735,0.739802 5.32136,0.809292 2.14541,0.08264 6.12011,1.875294 8.09634,2.729136 2.74404,1.185587 6.02112,1.754102 8.8788,2.586611 2.18641,0.63696 4.44966,0.75285 6.68733,1.20724 4.47722,0.90915 -4.123,-0.54251 2.73193,0.79587 1.53055,0.29884 3.1052,0.3253 4.63838,0.61033 0.79086,0.14703 1.58953,0.62728 2.39045,0.69639 2.60717,0.22499 5.31982,0.40691 7.91077,0.82271 0.70239,0.11271 1.34255,0.51293 2.04896,0.59691 0.37231,0.0443 0.74931,-0.0287 1.12395,-0.043 0.4885,0.0188 0.9815,-0.0125 1.46546,0.0565 1.49057,0.21246 3.108,0.66892 4.63837,0.61032 0.11848,-0.005 -0.004,-0.28444 0.0995,-0.34149 0.1923,-0.10554 5.14895,-0.1706 6.06079,-0.45719 0.11306,-0.0356 -0.004,-0.28445 0.0995,-0.3415 0.1039,-0.057 0.23755,0.15653 0.34149,0.0995 0.9124,-0.50072 -1.08776,-0.28693 0.54046,-0.5835 0.11664,-0.0212 0.23755,0.15653 0.34149,0.0995 0.065,-0.0356 -0.22559,-1.23856 -0.28504,-1.56494 -0.0425,-0.23328 0.36373,-0.51245 0.19897,-0.68298 -0.62739,-0.64939 -1.39466,-1.14725 -2.09199,-1.720872 z"
       id="path11"
       inkscape:label="Rim" />
    <path
       style="fill:none;stroke:#d4aa00;stroke-width:1.865;stroke-dasharray:none"
       d="m 129.47066,25.965269 c -2.53426,-1.461082 -5.63217,-1.422754 -8.53653,-1.422754 -1.71121,0 -3.64138,0.188217 -5.33533,0 -0.23242,-0.02583 -2.15482,-0.774434 -2.48982,-0.355689 -0.53708,0.671353 -1.7351,3.266207 -1.06706,4.268264 1.26836,1.902542 4.47747,4.37287 6.40239,5.335329 0.43724,0.218619 0.96503,0.184044 1.42275,0.355689 0.99294,0.372351 1.89701,0.948503 2.84551,1.422755 1.1482,0.574098 2.33865,1.41297 3.55689,1.778442 1.98535,0.595603 4.32321,1.067067 6.40239,1.067067 1.49648,0 1.53182,-0.410221 2.84551,-1.067067 0.2121,-0.106045 0.60534,0.212092 0.71138,0 0.31814,-0.636275 0,-1.422755 0,-2.134132 0,-1.067065 0.33744,-2.18889 0,-3.201196 -1.22974,-3.689208 -6.32247,-6.121915 -9.95928,-7.113774 -0.51341,-0.140021 -4.89939,0.550866 -4.97964,0.711378 -0.46603,0.93206 0.44192,2.268861 -1.42276,3.201197 -0.21209,0.106046 -0.48641,-0.07499 -0.71137,0 -3.33566,1.111887 -4.54212,1.83353 -6.4024,4.623953 -0.14706,0.220589 -0.71137,0.09057 -0.71137,0.355688 0,0.708654 1.07485,-0.01558 0.71137,0.711377 -0.43303,0.866068 -4.53122,2.675271 -5.33533,1.067067 -0.64547,-1.290958 -0.35568,-3.233314 -0.35568,-4.623954 0,-0.118562 0.0375,-0.468167 0,-0.355687 -0.69158,2.074704 -0.91535,4.388501 -1.77845,6.402396 -0.23352,0.54488 -1.02891,-0.623994 -1.42275,-1.067068 -0.61521,-0.692105 -1.12366,-1.479346 -1.77845,-2.134131 -0.18746,-0.187466 -0.55728,-0.139957 -0.71137,-0.355688 -1.05192,-1.472681 -1.901801,-3.079697 -2.845512,-4.623953 -0.360497,-0.589903 -0.757894,-1.160095 -1.067067,-1.778443 -0.05302,-0.106046 0.08384,-0.271852 0,-0.355689 -1.045123,-1.045122 -4.826968,4.876768 -4.979641,5.691018 -0.245811,1.311 0.181277,4.181057 1.778445,4.979641 0.355613,0.177808 1.028401,0.197948 1.422754,0.35569 0.85576,0.342302 2.300864,1.302708 3.201196,1.422754 0.765154,0.102018 5.431155,-0.259868 5.691015,0 1.25165,1.251646 1.35479,5.623052 1.42276,5.691016 0.21218,0.212188 2.32189,-2.489819 2.84551,-2.489819 0.11856,0 0,0.237125 0,0.355687 0,0.474252 0.19624,0.991013 0,1.422754 -0.46285,1.018265 -1.21486,1.879357 -1.77844,2.84551 -0.34835,0.597161 -0.87715,1.11371 -1.06707,1.778444 -0.0623,0.218115 -1.21833,4.641675 -0.71138,4.979641 1.34667,0.897776 3.18519,-0.004 4.62395,0.355687 2.32215,0.580538 -1.34385,0.190995 1.77845,0.711377 2.36061,0.393436 4.64035,-1.087569 6.0467,-2.845509 0.14813,-0.185163 0,-0.474249 0,-0.711377 0,-0.118562 0.11857,-0.355687 0,-0.355687 -0.35897,0 -3.09421,3.502009 -2.8455,2.134132 0.21629,-1.189607 0.19377,-2.464171 0.71137,-3.556887 0.5787,-1.221695 1.73996,-2.076413 2.48982,-3.201199 0.27116,-0.406744 0.84454,-1.422754 0.35569,-1.422754 -0.23713,0 -0.1973,0.842912 0,0.711377 1.18791,-0.791938 2.13413,-1.897004 3.2012,-2.845509 0.37596,-0.334187 0.64853,-1.346089 1.06706,-1.067065 0.49325,0.328835 0.0655,1.189255 0,1.778442 -0.5771,5.193887 -1.03213,4.909775 -3.20119,9.247905 -0.075,0.149971 0.24656,-0.228381 0.35568,-0.355688 0.0224,-0.02614 4.62396,-5.874033 4.62396,-4.268263 0,1.683181 -0.71138,3.291014 -0.71138,4.979641 0,0.118562 0.27185,-0.08384 0.35569,0 0.30861,0.30861 -0.35569,3.76402 -0.35569,4.268263 0,0.374928 0.11566,-0.779039 0.35569,-1.067067 1.2163,-1.459558 1.79439,-1.313595 2.48982,-3.201196 0.84655,-2.297772 2.36016,-9.7975 2.84551,-9.959282 0.92752,-0.309174 1.897,-0.474252 2.84551,-0.711377 0.47425,-0.118563 0.96887,-0.174136 1.42275,-0.35569 0.15568,-0.06227 0.20001,-0.41796 0.35569,-0.355688 1.60806,0.643226 3.01688,3.320788 3.2012,4.979641 0.1492,1.342874 -0.0994,2.154018 0,2.134132 0.62608,-0.125217 1.16689,-0.527913 1.77844,-0.711377 1.76297,-0.528889 3.56189,-0.930132 5.33533,-1.422755 0.91723,-0.254786 1.23241,-0.140335 1.42275,-0.711377 0.16768,-0.503021 0.94851,-0.948502 0.71138,-1.422755 -0.10605,-0.212092 -0.47885,0.0465 -0.71138,0 -0.36764,-0.07353 -0.6959,-0.302664 -1.06706,-0.35569 -0.58686,-0.08384 -1.24822,0.265116 -1.77844,0 -1.77431,-0.887147 -4.5259,-1.649629 -6.4024,-0.711377 -0.23713,0.118565 -0.44626,0.35569 -0.71138,0.35569 -0.19859,0 0.95973,-4.194585 1.06707,-4.623951 0.84514,-3.380554 1.26415,-2.633368 -1.42276,-1.778444 -2.82454,0.898718 -5.66095,1.770927 -8.53652,2.489822 -0.58651,0.146624 -1.19715,0.189603 -1.77845,0.355687 -0.25491,0.07283 -0.49078,0.502748 -0.71137,0.35569 -0.68058,-0.453718 -0.57911,-2.713241 -1.06707,-3.201199 -0.47817,-0.478166 -2.31721,-0.259633 -2.84551,-0.355687 -0.82994,-0.237128 -1.65988,-0.474253 -2.48982,-0.711378 -0.23712,-0.237127 -0.39324,-0.605332 -0.71138,-0.711377 -1.23941,-0.413139 -3.28554,0.365122 -4.26826,1.067065 -0.40932,0.292375 -0.76525,0.664649 -1.06706,1.067067 -0.23201,0.309335 0.17795,1.066832 0,1.422754 -0.0463,0.0926 -0.63374,0.433324 -0.35569,0.711378 0.41918,0.419182 1.23356,-0.233522 1.77844,0 1.32512,0.567909 1.6628,3.316835 0.71138,4.26826"
       id="path15"
       inkscape:label="Insignia" />
  </g>
</svg>
