<?xml version="1.0" encoding="UTF-8" standalone="no"?>
<!-- Generator: Adobe Illustrator 22.1.0, SVG Export Plug-In . SVG Version: 6.00 Build 0)  -->

<svg
   version="1.1"
   id="Layer_1"
   x="0px"
   y="0px"
   viewBox="0 0 45.8 96"
   style="enable-background:new 0 0 45.8 96;"
   xml:space="preserve"
   sodipodi:docname="postbox.svg"
   inkscape:version="1.4.3 (0d15f75042, 2025-12-25)"
   xmlns:inkscape="http://www.inkscape.org/namespaces/inkscape"
   xmlns:sodipodi="http://sodipodi.sourceforge.net/DTD/sodipodi-0.dtd"
   xmlns="http://www.w3.org/2000/svg"
   xmlns:svg="http://www.w3.org/2000/svg"><defs
   id="defs10" /><sodipodi:namedview
   id="namedview10"
   pagecolor="#ffffff"
   bordercolor="#000000"
   borderopacity="0.25"
   inkscape:showpageshadow="2"
   inkscape:pageopacity="0.0"
   inkscape:pagecheckerboard="0"
   inkscape:deskcolor="#d1d1d1"
   inkscape:zoom="12.145833"
   inkscape:cx="22.888508"
   inkscape:cy="48"
   inkscape:window-width="3440"
   inkscape:window-height="1374"
   inkscape:window-x="1920"
   inkscape:window-y="29"
   inkscape:window-maximized="1"
   inkscape:current-layer="Layer_1" />

<path
   style="enable-background:new 0 0 45.8 96;fill:#ffffff;stroke:none;stroke-width:7.04882"
   d="m 13.749571,1.3173242 c -0.693647,0.2632346 -1.181109,0.8328111 -1.893653,1.0703259 -0.158371,0.05279 -0.3341,0.034364 -0.493997,0.082333 C 10.889536,2.6116983 10.453978,2.7996944 9.9622642,2.8816467 9.7341263,2.9196696 9.5216239,2.9016875 9.3036021,2.9639794 9.0281,3.0426943 8.7520973,3.1203701 8.4802744,3.2109777 8.4279147,3.228431 7.8515398,3.5013902 7.6569468,3.5403087 7.2500127,3.6216956 6.7166773,3.7634452 6.3396226,3.9519726 6.2701936,3.9866871 6.2415192,4.0767008 6.1749571,4.1166381 6.1005384,4.1612893 6.0055829,4.1601588 5.9279588,4.1989708 5.8585298,4.2336854 5.8278804,4.3205783 5.7632933,4.3636364 5.5116824,4.531377 5.2652908,4.6753887 5.0222985,4.8576329 4.8808816,4.9636956 4.4147054,5.135895 4.3636364,5.186964 4.293667,5.2569334 4.2689402,5.3639929 4.1989708,5.4339623 3.9709806,5.6619525 3.6036335,5.7823013 3.3756432,6.0102916 c -0.019406,0.019406 0.012274,0.057786 0,0.082333 C 3.3255834,6.192744 2.7252887,6.6085268 2.6346484,6.6689537 2.4777928,6.7735241 2.423888,6.9620469 2.3053173,7.0806175 c -0.043393,0.043393 -0.1212723,0.03894 -0.1646655,0.082333 -0.043393,0.043393 -0.03894,0.1212723 -0.082333,0.1646655 -0.00511,0.2318275 -0.185631,0.020965 -0.2469982,0.082333 -0.019406,0.019406 0.012273,0.057786 0,0.082333 -0.2537168,0.5074335 -0.6481722,0.9984831 -0.082333,1.5643225 0.617587,0.617587 1.4185576,0.8289978 2.2229846,1.0703265 0.3675341,0.11026 0.8150528,-0.0041 1.1526586,0.164665 0.487614,0.243807 0.9005907,0.740271 1.4819897,0.823328 0.4921554,0.07031 2.2198392,-0.125072 2.4699829,0 1.1740656,0.587033 0.06791,-0.01442 0.4939965,0.411664 0.043393,0.04339 0.1212724,0.03894 0.1646656,0.08233 0.019406,0.01941 -0.019406,0.06293 0,0.08233 0.019406,0.01941 0.067109,-0.02284 0.082333,0 0.04814,0.07221 0.054888,0.164666 0.082333,0.246998 0.054889,0.08233 0.1052945,0.167837 0.1646655,0.246999 -0.0082,0.163106 0.121272,0.03894 0.164665,0.08233 0.176303,0.176303 -0.2469977,1.139744 -0.2469977,1.399657 0,0.392499 -0.00658,0.773873 -0.082333,1.152659 -0.012035,0.06018 -0.070298,0.10449 -0.082333,0.164666 -0.032293,0.161467 0.032294,0.332528 0,0.493996 -0.038009,0.190047 -0.1249968,0.377986 -0.1646655,0.57633 -0.070083,0.350416 0.1077899,1.678073 0,1.893653 -0.060038,0.120076 -0.13171,0.13171 -0.1646655,0.164666 -0.038812,0.03881 0.024547,0.115571 0,0.164665 -0.1200105,0.240021 -0.2713323,0.667993 -0.1646655,0.987993 0.094398,0.283193 0.2790358,0.60389 0.329331,0.905661 0.1210872,0.726523 0.10758,1.480872 0.1646655,2.222984 0.010733,0.139527 0.073024,0.272035 0.082333,0.411664 0.061088,0.916324 0,1.883894 0,2.799314 0,2.38765 0,4.7753 0,7.16295 0,2.058319 0,4.116638 0,6.174957 0,0.944796 0.1025897,2.040672 0,2.96398 -0.015454,0.139083 -0.072363,0.27208 -0.082333,0.411663 -0.042738,0.598329 0.059696,1.214357 0,1.811321 -0.011259,0.112594 -0.074806,0.216426 -0.082333,0.329331 -0.041479,0.62218 0.068962,1.272992 0,1.893654 -0.1213979,1.092581 -0.04304,2.198676 -0.1646656,3.29331 -0.044201,0.39781 0,0.834912 0,1.234992 0,0.71355 0,1.427101 0,2.140651 0,0.823328 0,1.646656 0,2.469983 0,0.361975 -0.071237,0.796475 0,1.152659 0.01702,0.0851 0.065313,0.161897 0.082333,0.246998 0.036691,0.183458 -0.045287,0.395182 0,0.57633 0.014884,0.05953 0.073654,0.103915 0.082333,0.164665 0.027168,0.190179 -0.037676,0.38795 0,0.576329 0.1489958,0.74498 0.04138,-0.491861 0.1646655,0.740995 0.019116,0.191157 -0.023828,0.385703 0,0.57633 0.1360748,1.0886 0.015306,-0.08814 0.1646658,0.658662 0.06327,0.316354 -0.045682,0.668218 0,0.987993 0.07109,0.497596 0.09399,0.987264 0.164665,1.48199 0.04296,0.300713 -0.01305,0.537168 0.08233,0.823327 0.11895,0.35685 -0.05705,1.000293 0,1.399657 0.02361,0.165259 0.06163,0.328349 0.08233,0.493997 0.05059,0.404739 -0.05766,0.831353 0,1.234991 0.016,0.112018 0.06373,0.217715 0.08233,0.329331 0.0393,0.235774 -0.05788,0.509474 0,0.740995 0.01488,0.05953 0.06293,0.106447 0.08233,0.164666 0.05763,0.172898 -0.05763,0.40343 0,0.576329 0.09461,0.283818 0.08233,0.06099 0.08233,0.246998 0,0.211806 -0.06458,0.547245 0,0.740995 0.01731,0.05194 0.751714,0.257717 0.823328,0.329331 0.04339,0.04339 0.03894,0.121272 0.08233,0.164666 0.521075,0.521075 1.315887,0.45274 1.975986,0.493996 1.589593,0.09935 0.02534,0.02714 0.987993,0.164666 0.554114,0.07916 0.618158,-0.135644 1.152659,-0.246999 0.866447,-0.180509 1.755011,-0.231593 2.634648,-0.329331 0.06686,-0.0074 0.317662,0.03133 0.411664,0 0.116436,-0.03881 0.207347,-0.151111 0.329331,-0.164665 0.776844,-0.08632 1.608498,0 2.38765,0 1.341525,0 2.694707,0.05152 4.034305,0 0.248335,-0.0096 0.49286,-0.06855 0.740995,-0.08233 0.493236,-0.0274 0.989087,0.03286 1.48199,0 0.317261,-0.02115 0.594165,-0.120166 0.90566,-0.164665 0.05434,-0.0078 0.113703,0.02039 0.164666,0 0.08313,-0.03325 0.291785,-0.223023 0.411664,-0.246999 0.08073,-0.01615 0.166264,0.01615 0.246998,0 0.239517,-0.0479 0.510085,-0.170028 0.740995,-0.246998 0.228054,-0.07602 1.877185,-0.03764 2.140652,0 0.277064,0.03958 0.545611,0.129951 0.823327,0.164665 0.901622,0.112703 1.463787,-0.19673 2.222985,-0.576329 0.248403,-0.124201 0.651029,-0.235549 0.823327,-0.493996 0.467432,-0.701148 -0.04333,-1.988945 -0.164665,-2.716982 -0.147051,-0.882303 0.111057,-1.82852 0,-2.716981 -0.08597,-0.687782 -0.19369,-1.38011 -0.329331,-2.058319 -0.08552,-0.427588 0,-0.965748 0,-1.399657 0,-0.717937 0.189548,-1.44174 0.329331,-2.140651 0.319454,-1.59727 -0.07162,0.243589 0.08233,-0.987994 0.03483,-0.278642 0.188233,-0.694167 0.246998,-0.987993 0.108324,-0.541619 0,-1.323862 0,-1.893653 0,-1.152659 0,-2.305318 0,-3.457976 0,-0.692799 -0.01736,0.585236 0.08233,-0.411664 0.06125,-0.6125 0,-1.274009 0,-1.893654 0,-1.28988 0,-2.579759 0,-3.869639 0,-0.642063 -0.01868,-1.257171 -0.08233,-1.893654 -0.02804,-0.280347 0.06883,-0.630342 0,-0.90566 -0.09751,-0.390042 -0.02488,-0.42115 -0.08233,-0.823328 -0.0087,-0.06075 -0.06745,-0.10513 -0.08233,-0.164665 -0.05963,-0.238526 -0.03867,-0.500836 -0.08233,-0.740995 -0.05126,-0.281905 -0.206478,-0.539681 -0.246999,-0.823328 -0.01553,-0.108674 0.01362,-0.220402 0,-0.329331 0.01378,-0.209399 -0.13641,-0.37854 -0.164665,-0.576329 -0.04599,-0.321915 0.02946,-0.663929 0,-0.987993 -0.01757,-0.193264 -0.06476,-0.383066 -0.08233,-0.57633 -0.04455,-0.490057 0.03507,-0.99102 0,-1.481989 -0.01965,-0.275111 -0.01544,-0.555752 -0.08233,-0.823328 -0.01488,-0.05953 -0.07224,-0.104133 -0.08233,-0.164666 -0.04061,-0.243637 0.02236,-0.495011 0,-0.740994 -0.0225,-0.247498 -0.03359,-0.497303 -0.08233,-0.740995 -0.01203,-0.06018 -0.07472,-0.103772 -0.08233,-0.164666 -0.103671,-0.829364 0,-2.018887 0,-2.881646 0,-0.965127 -0.02398,-1.924853 0.08233,-2.881647 0.01921,-0.172899 -0.02561,-0.409834 0,-0.576329 -0.127117,-0.38201 0.19119,-0.653146 0.246998,-0.987994 0.01353,-0.08121 -0.01615,-0.166264 0,-0.246998 0.01203,-0.06017 0.07224,-0.104133 0.08233,-0.164665 0.01805,-0.108284 -0.01805,-0.221048 0,-0.329331 0.04477,-0.268633 0.180888,-0.558889 0.246998,-0.823328 0.02663,-0.106499 -0.02663,-0.222832 0,-0.329331 0.01488,-0.05954 0.07365,-0.103915 0.08233,-0.164666 0.02717,-0.190179 -0.03768,-0.38795 0,-0.576329 0.09781,-0.489047 0.01351,-0.917866 0.08233,-1.399657 0.0087,-0.06075 0.0703,-0.10449 0.08233,-0.164665 0.107926,-0.539628 0,-1.255043 0,-1.811321 0,-0.484825 0.09478,-1.596867 0,-1.975986 -0.01488,-0.05954 -0.06293,-0.106448 -0.08233,-0.164666 -0.05763,-0.172899 0.05763,-0.403431 0,-0.576329 -0.01227,-0.03682 -0.07006,-0.04551 -0.08233,-0.08233 -0.06387,-0.1916 0.02842,-0.459691 0,-0.658662 -0.08236,-0.576531 -0.309014,-1.563259 -0.164666,-2.140652 0.06781,-0.271257 0.122789,-0.530189 0.164666,-0.823328 0.0117,-0.08186 -0.06616,-0.510173 0,-0.576329 0.04321,-0.04321 1.659085,-0.227026 1.728988,-0.246998 0.227954,-0.06513 0.425829,-0.208193 0.658662,-0.246998 0.379669,-0.06328 0.781972,0.01034 1.152659,-0.08233 0.03765,-0.0094 0.04762,-0.06498 0.08233,-0.08233 0.08807,-0.04404 0.07659,0.04404 0.164666,0 0.113548,-0.05677 0.222132,-0.175533 0.329331,-0.246998 0.415929,-0.277286 0.0019,-6.36e-4 0.246998,-0.08233 0.211452,-0.07048 0.711969,-0.3777819 0.905661,-0.4939969 0.09882,-0.059292 0.690784,-0.7229067 0.740994,-0.8233276 0.01227,-0.024547 -0.01941,-0.062927 0,-0.082333 0.01941,-0.019406 0.06293,0.019406 0.08233,0 0.0655,-0.065495 0.105509,-0.3525076 0.164666,-0.4116638 0.01941,-0.019406 0.06293,0.019406 0.08233,0 0.03881,-0.038812 -0.01331,-0.1114158 0,-0.1646655 0.02105,-0.084195 0.05849,-0.1635511 0.08233,-0.2469983 0.07802,-0.2730785 0.371879,-1.3968948 0.246998,-1.6466552 -0.0756,-0.1511931 -0.237154,-0.2733996 -0.329331,-0.4116638 -0.03045,-0.04567 0.04909,-0.1401187 0,-0.1646656 -0.04909,-0.024547 -0.112593,0.017357 -0.164665,0 C 42.010003,5.879835 41.8642,5.6796211 41.74271,5.5986278 41.658116,5.5422318 41.509455,5.482 41.413379,5.4339623 41.358491,5.406518 41.385935,5.296741 41.331046,5.2692967 c -0.04909,-0.024547 -0.115571,0.024547 -0.164665,0 -0.06943,-0.034714 -0.100079,-0.1216074 -0.164666,-0.1646655 -0.121487,-0.080992 -0.488368,-0.2867576 -0.658662,-0.329331 -0.442527,-0.1106318 -0.385856,-9.821e-4 -0.658662,-0.1646656 -0.08485,-0.05091 -0.153124,-0.1333742 -0.246998,-0.1646655 -0.07811,-0.026036 -0.166265,0.016147 -0.246998,0 C 38.79691,4.3672723 38.404063,4.1089701 38.037736,3.9519726 37.957967,3.9177857 37.87307,3.897084 37.790738,3.8696398 37.653516,3.8147513 37.514128,3.7649982 37.379074,3.7049743 36.782558,3.4398561 36.199378,3.0739598 35.650086,2.7993139 35.440839,2.6946904 35.286282,2.4115802 35.073756,2.3053173 34.941567,2.2392228 34.794282,2.2067463 34.662093,2.1406518 34.518961,2.0690859 34.383579,1.98242 34.250429,1.8936535 c -0.03229,-0.021529 -0.04427,-0.074721 -0.08233,-0.082333 -0.107645,-0.021529 -0.222832,0.026625 -0.329331,0 C 33.576541,1.7457647 33.355518,1.5633839 33.09777,1.4819897 32.63403,1.3355455 32.174983,1.1656998 31.698113,1.0703259 c -0.188423,-0.037685 -0.470875,0 -0.658662,0 -0.296469,0 -0.762239,-0.061617 -1.070326,0 -0.453932,0.090786 -1.101294,0.1749384 -1.564322,0.082333 -0.421017,-0.084203 -0.7987,-0.21791224 -1.234992,-0.24699832 -0.219067,-0.0146045 -0.440197,0.0218464 -0.658662,0 -0.06106,-0.006106 -0.103915,-0.0736541 -0.164665,-0.0823328 -0.511502,-0.0730716 -1.137331,0 -1.646656,0 -1.234991,0 -2.469982,0 -3.704974,0 -0.926017,0 -2.16581,-0.13779262 -3.046312,0.0823328 -0.230064,0.057516 -0.506763,-0.0390387 -0.740995,0 -0.08561,0.0142676 -0.161084,0.0700593 -0.246998,0.0823328 -0.535746,0.0765351 -1.112817,-0.0889731 -1.646655,0 -0.52693,0.0878216 -1.041732,0.19868332 -1.564323,0.32933082 z"
   id="path10" /><g
   id="g10">
	<path
   fill="#FDF6E8"
   d="M37.3,79.9L38,69.5l-4.7,0.9l-15,2l-9.1-2.9l-0.8,8.6l1,7c0,0,2.4,4.6,13.8,4.4S38,84.8,38,84.8L37.3,79.9z"
   id="path1" />
	<rect
   x="10.2"
   y="60.7"
   fill="#F6F3E0"
   width="25.4"
   height="10.3"
   id="rect1" />
	<g
   id="g9">
		<g
   id="g7">
			<path
   fill="#E30518"
   d="M41.2,6.3c0.3-0.5,0.1-1.1-0.4-1.3c-4.7-2.7-9.9-4.3-15.3-4.5c-1.5-0.1-3.1-0.1-4.5,0.4     c-0.3-0.4-0.9-0.6-1.4-0.2c-0.4,0-0.7,0.2-0.8,0.7c0,0.1,0,0.2-0.1,0.3c-0.7,0.9-1.2,1.8-1.5,2.9c0,0,0,0.1,0,0.1     c-0.2,0.4-0.4,0.8-0.5,1.1c-0.5,0.1-1,0.3-1.5,0.6c-0.8,0.5-1.3,1.8-2.2,1.9c-0.1,0-0.1,0-0.2,0c-1.4,0.1-2.8,0.3-4.2,0.5     C8,8.4,7.7,7.7,7.7,7c0-0.1,0-0.2,0-0.3C8.6,6.1,9.6,5.5,10.5,5c1.6-0.8,3.2-1.5,4.8-2.2c0.1,0,0.2-0.1,0.3-0.1     c0,0,0.1-0.1,0.1-0.1c0,0,0.1,0,0.1,0c0.1,0,0.2-0.1,0.3-0.1c0.3-0.2,0.6-0.4,0.9-0.5c0.9-0.5,0.3-1.8-0.5-1.8     c-0.2,0-0.4,0-0.6,0.1c-0.1,0.1-0.3,0.2-0.4,0.3c-0.2,0.1-0.4,0.1-0.6,0.2c-0.2,0-0.3,0-0.5,0.1c0,0,0,0-0.1,0c0,0,0,0,0.1,0     c0,0,0,0-0.1,0c-0.4,0-0.7,0.2-0.8,0.5C12.2,2,11,2.6,9.8,3.2C8,4.2,6.2,5.2,4.5,6.4C4.3,6.6,4.1,6.9,4.1,7.1     C3.9,7.2,3.6,7.3,3.4,7.5C3,7.3,2.4,7.3,2.2,7.8C1.8,8.6,2.1,9.3,2.8,9.7c0.6,0.3,1.2,0.1,1.8,0.3c-0.1,0.1-0.1,0.3-0.1,0.5     c0,0.4,0.1,0.7,0.4,1c0.1,0.1,0.2,0.2,0.3,0.2c0.2,0.1,0.4,0.2,0.7,0.2l0,0C6,12,6.2,12,6.5,12c2.2-0.2,4.5-0.5,6.7-0.7     c-0.9,1.6-0.8,6.2-1,6.7c-0.1,0.3-0.5,1.5-0.4,1.8c0.1,4.2,0.5,8.4,0.7,12.5c0.2,4.2,0.4,8.4,0.6,12.5c0.3,8.4,0.5,16.7,0.6,25.1     c0,1,0.9,1.5,1.7,1.4c0.1,0.1,0.2,0.1,0.3,0.1c2.9,0.8,5.9,1.1,8.9,0.9c3-0.2,6.2-0.8,8.8-2.2c0.7-0.3,0.8-1,0.7-1.7     c0-0.1,0.1-0.3,0.1-0.4c0.2-6.7-0.1-28.6,0-32.7c0.1-5.4,0-10.7-0.2-16.1c0-0.1,0-0.2,0-0.3c0.1-0.3,0.1-0.6,0.2-0.9     c0-0.2,0-0.3,0-0.4c0.4-2.1,0.5-4.3,0.5-6.5c1.4,0.1,2.8,0.2,4.1,0.4c0,0,0.4,0.1,1.4-0.5c0,0,1.6-3.9,1.1-3.8     C40.7,7.5,41,6.7,41.2,6.3z M26.1,41.5c-2.9-0.1-5.8,0.1-8.6,0.7c-0.1-2.2-0.2-4.5-0.3-6.7c-0.1-2.8-0.2-5.6-0.4-8.3     c2.1,0,4.1-0.1,6.2-0.2c1.5,0,3-0.1,4.5-0.1c0.1,2.4,0.3,4.8,0.4,7.3c0.1,2.5,0.1,4.9,0,7.4C27.4,41.5,26.8,41.5,26.1,41.5z      M23.4,24.1c-2.8,0.1-5.6,0.1-8.5,0.3c-0.1-1.3-0.2-2.6-0.3-3.9c0,0,0.1,0,0.1-0.1c0.2,0.1,0.4,0.2,0.7,0.2     c5.1-0.3,15.4-0.4,15.4-0.1c0,0.2,0,0.4,0.1,0.5c0,0.9,0.1,1.8,0.1,2.7C28.4,23.8,25.9,24,23.4,24.1z"
   id="path2" />
			<g
   id="g6">
				<path
   fill="#26231E"
   d="M43.1,5.9c-0.9-1.1-2.6-1.6-3.9-2.1c-3.1-1.3-6.2-2.5-9.4-3.6C29.3,0,17.3-0.1,14.5,0.3      c-0.4,0.1-6.7,3.3-9.1,4.3c-1.3,0.5-5,2.3-5.1,2.5c-0.7,0.2,0.1,1.8,0.2,2c0,0,0,0.1,0.1,0.1c0.1,0.4,0.3,0.7,0.7,1.1      c0.3,0.3,0.8,0.5,1.2,0.5c0.4,0,1.2-0.2,1.6,0c0.3,0.2,0.5,0.6,0.7,0.9c0.4,0.4,0.8,0.7,1.4,0.9C7.1,13,8.1,13,9,12.9      c0,0.2,0.1,0.5,0.1,0.7c0,0,0,0.1,0,0.1c-0.5,0.2-1.1,0.4-1.6,0.6c-0.5,0.2-0.9,0.5-1,1c-0.1,0.6,0.4,1,0.9,1.2      c0.3,0.1,0.5,0.3,0.8,0.4c-0.1,0.1-0.1,0.2-0.1,0.4c0,0.5,0.1,1,0.2,1.5c0,0.3,0.2,0.5,0.4,0.6c-0.1,6.5,0,13.1,0.1,19.6      C8.9,45.6,9,52.3,9.2,59.1c0.1,3.1,0.2,6.3,0.3,9.4C8.9,68.6,8.3,69,8,69.6c-0.3,0.8-0.2,1.6-0.2,2.4c0,0.9,0,1.9,0,2.8      c0,1.9,0,3.7,0,5.6c0,1.9-0.1,3.9,0.1,5.8c0.1,1.2,10.8,3.9,15.8,3.8c5.4-0.1,10.6-1.8,15.1-4.6c0.5-0.3,0.1-4,0.1-5.5      c0-1.7-0.1-3.4-0.1-5.1c0-1.6,0-3.3-0.1-4.9c0-0.6-0.3-1.3-0.9-1.7c-0.3-0.2-0.7-0.3-1.1-0.3c-0.1-13.4-0.1-26.7-0.2-40.1      c0-3.2,0-6.4-0.1-9.6c0.2-0.1,0.3-0.3,0.3-0.5c0.1-0.2,0.1-0.5,0.1-0.8c0.1-0.3-0.1-0.6-0.3-0.7c0.2-0.1,0.4-0.2,0.7-0.3      c0.5-0.3,0.7-0.9,0.7-1.4c-0.1-0.6-0.6-1.2-1.2-1.5c0-0.3,0.1-0.5,0.1-0.8c2.3,0.2,4.8-0.8,6.1-2.6c0-0.1,0.4-0.4,0.5-0.5      C44.1,8.2,43.9,6.8,43.1,5.9z M14.7,2c0,0,5.1-0.5,7.9-0.4c2.8,0.1,6.9,0.4,7.8,0.3c2.2,0.9,9.1,3.5,10.3,4.1      C29.2,4.1,17.4,4.1,5.9,6C6.3,5.8,14.7,2,14.7,2z M36.8,69.5c0.2,0.2,0.2,0.7,0.2,0.8c0,0.6,0,1.3,0,1.9c0,1.4,0.1,2.8,0.1,4.3      c0,1.4,0.1,2.8,0.1,4.3c0,1.3,0,2.6,0.1,3.9c-4.1,2.5-8.9,3.9-13.7,4c-5,0.1-9.8-1.2-14.1-3.5c0-1.2,0-2.3-0.1-3.5      c0-1.5,0-3.1,0-4.6c0-1.5,0-3.1-0.1-4.6c0-0.7-0.1-1.3,0-2c0-0.1,0.1-0.2,0.1-0.3c0,0.3,0.1,0.5,0.4,0.7      c4.1,1.9,8.9,2.6,13.5,2.4c4.6-0.2,9.2-1.4,13.2-3.4C36.7,69.7,36.8,69.6,36.8,69.5z M10.3,16.2c1.5-0.4,15.3-1.4,24.4-0.1      c0.6,0.1,1.4,0.1,1.4,0.9c-0.1,0.8-1,0.5-1,0.5S18,16,9.8,17.7C9.8,17.6,8.8,16.6,10.3,16.2z M11.2,69.4      C11.2,69.4,11.2,69.3,11.2,69.4c-0.5-13.4-0.8-26.8-0.8-40.1c0-3.4,0-6.8,0-10.1c8-1.7,16.4-2,24.5-0.8c-0.1,3.2,0,6.4,0,9.5      c0,3.4,0,6.8,0.1,10.1c0,6.8,0.1,13.5,0.1,20.3c0,3.4,0,6.9,0.1,10.3c0,0.1,0,0.1,0,0.2c-3.7,1.8-7.7,2.7-11.8,2.9      c-4.2,0.2-8.2-0.6-12-2C11.3,69.6,11.2,69.5,11.2,69.4z M41.7,9.1c-0.9,0.8-3.3,2-4.8,1.8c-0.1,0-4.6-0.3-6.7-0.4      c-2.2-0.1-4.4-0.2-6.6-0.3c-1,0-0.9,1.4,0.1,1.4c2.1,0.1,4.3,0.2,6.4,0.3c1.1,0.1,2.1,0.1,3.2,0.2c0.7,0,1.3,0.1,2,0.1      c-0.1,0.3-0.4,1.9-0.2,2.2c-8.3-0.5-16.7-0.7-25,0.3c0.3-0.2,0.6-2,0.6-2.3c1.3-0.2,2.5-0.4,3.8-0.6c1.1-0.2,0.8-1.7-0.3-1.5      c-1.9,0.4-5.8,1-5.9,1.1c-0.5,0-1,0-1.5-0.2c-0.7-0.3-1-1-1.5-1.5C4.6,9.2,3.6,9.3,2.8,9.3c-0.6,0-0.8-0.6-0.7-1      c0,0,0-0.1,0-0.1c13-2.7,26.6-2.9,39.7-0.5c0.1,0,0.3,0,0.4,0.1c0,0.2,0,0.4-0.1,0.6C42.1,8.5,42,8.9,41.7,9.1z"
   id="path3" />
				<path
   fill="#26231E"
   d="M28.8,41c0,0,0-0.1,0-0.1c0.1-1.2,0-2.4-0.1-3.6c0-1.2,0-2.4-0.1-3.6c0-1.2,0-2.4-0.1-3.6      c0-1.2,0-2.4-0.1-3.6c0-0.9-2.3-0.8-2.9-0.8c-1,0-2.1,0.1-3.1,0.2c-2.1,0.1-4.2,0.2-6.3,0.3c-0.9,0.1-0.1,5.7,0,7.9      c0.1,2.4,0.1,4.8,0.4,7.2c0,0.1,0,0.2,0.1,0.2c0,0.4,0.3,0.7,0.8,0.7c1.8-0.2,3.5-0.3,5.3-0.3c0.9,0,1.7,0,2.6,0      c0.9,0,1.8,0.2,2.8,0.2C28.7,42,28.9,41.4,28.8,41z M22.9,40.3c-1.6,0-3.1,0.1-4.7,0.3c0-2.2-0.2-4.5-0.3-6.7      c-0.1-2.1-0.2-4.3-0.3-6.4c1.5-0.1,3.1-0.2,4.6-0.2c0.9,0,1.9-0.1,2.8-0.1c0.7,0,1.3-0.1,2,0.1c0,0.9,0,1.9,0.1,2.8      c0,1.2,0,2.4,0.1,3.6l0.1,3.6c0,1,0,2,0,3.1c-0.5,0-1,0-1.5-0.1C24.7,40.3,23.8,40.3,22.9,40.3z"
   id="path4" />
				<path
   fill="#26231E"
   d="M27,47.8c-0.8-0.5-2-0.2-2.8,0.1c-0.3,0.1-0.6,0.6-0.8,0.7c-0.1-0.7-0.1-1.4-0.2-2.1      c-0.1-1-1.6-0.9-1.6,0.1c0,0.4,0,0.9,0,1.3c-1-0.4-2.3-0.3-3.3,0.4c-1,0.8-1.1,1.9-0.6,2.9c0.3,0.5,0.7,1,1.2,1.4      c0.3,0.3,0.5,0.5,0.8,0.8c-0.5,0.3-0.2,1.4,0.5,1.3c0.9-0.1,1.8-0.2,2.8-0.3c1-0.1,2-0.1,3-0.2c0.4,0,0.7-0.2,0.7-0.6      c0.1-0.3-0.2-0.8-0.6-0.9c0,0,0-0.1,0-0.1c0,0,0-0.1,0-0.1c0-0.3,0.3-0.6,0.6-0.8c0.4-0.3,0.7-0.7,1-1.1      C28.2,49.8,27.9,48.4,27,47.8z M25.6,50.8c-0.5,0.5-1.1,1.5-1,2.2c-0.5,0-1.1,0-1.5,0c-0.6,0-1.4,0.2-1.9,0.3      c-0.5-0.5-2.4-2.8-2.1-3.4c0.3-0.9,2.3-0.9,2.5,0c0,0.2,0,0.3,0,0.5c0,0.4,1,1.4,1.9,0.5c0.3-0.6,0.9-1.5,1.5-1.8      c0.3-0.1,1.7-0.2,1.7,0.3C26.6,49.9,25.9,50.5,25.6,50.8z"
   id="path5" />
				<path
   fill="#26231E"
   d="M31,20.3c0-0.4-0.4-0.7-0.9-0.7c-5.4,0-10.8,0-16.1,0.1c-0.8-0.1-0.9,0.8-0.9,1c0,0.6,0,1.2,0.1,1.7      c0,0.6,0,1.2,0.1,1.7c0,0.2,0.3,0.8,1,0.9c5.3-0.2,10.6-0.4,15.8-0.7c0.2,0,0.3-0.1,0.4-0.1c0.2-0.1,0.4-0.2,0.4-0.5      C31.1,22.6,31,21.4,31,20.3z M29.4,21.1c0,0.6,0,1.2,0,1.8c-4.8,0.2-9.6,0.4-14.5,0.7c0-0.4-0.1-0.8-0.1-1.2      c0-0.4-0.1-0.8-0.1-1.2C19.6,21.2,24.5,21.1,29.4,21.1z"
   id="path6" />
			</g>
		</g>
		<g
   id="g8">
			<path
   fill="#26231E"
   d="M19.7,96c-0.1,0-0.2,0-0.3-0.1c-0.3-0.2-0.6-0.5-1-0.8c-0.2-0.2-0.5-0.5-0.6-0.6c-0.3-0.1-0.4-0.5-0.3-0.8     s0.4-0.5,0.7-0.4c2.3,0.5,4.8,0.6,7.1,0.3l-12.3-1.3c-0.3,0-0.6-0.3-0.6-0.6c0-0.3,0.3-0.6,0.6-0.6c1.1-0.1,2.2-0.1,3.3-0.2     c6.6-0.3,13.4-0.6,19.8-2c-4,0.6-8.1,1.1-11.8,1.1c-7,0.1-14.1-0.7-21.2-2.3c-0.3-0.1-0.6-0.4-0.5-0.8c0.1-0.3,0.4-0.5,0.8-0.5     c7,1.6,14,2.4,20.9,2.3c5.8-0.1,12.6-1.2,18.5-2.2l2.2-0.4c0.3-0.1,0.6,0.1,0.7,0.4c0.1,0.3-0.1,0.6-0.4,0.8     c-7.5,3.2-15.7,4-23.9,4.5l8.1,0.8c0.3,0,0.5,0.3,0.6,0.6c0,0.3-0.2,0.6-0.5,0.7c-3.1,0.9-6.3,1.2-9.5,0.9     c0.2,0.2,0.2,0.5,0.1,0.7C20.2,95.8,20,96,19.7,96z"
   id="path7" />
		</g>
	</g>
</g>
</svg>
