<?xml version="1.0" encoding="utf-8"?>
<!-- Generator: Adobe Illustrator 22.1.0, SVG Export Plug-In . SVG Version: 6.00 Build 0)  -->
<svg version="1.1" id="Layer_1" xmlns="http://www.w3.org/2000/svg" xmlns:xlink="http://www.w3.org/1999/xlink" x="0px" y="0px"
	 viewBox="0 0 45.8 96" style="enable-background:new 0 0 45.8 96;" xml:space="preserve">
<style type="text/css">
	.st0{fill:#FDF6E8;}
	.st1{fill:#F6F3E0;}
	.st2{fill:#E30518;}
	.st3{fill:#26231E;}
</style>
<g>
	<path class="st0" d="M37.3,79.9L38,69.5l-4.7,0.9l-15,2l-9.1-2.9l-0.8,8.6l1,7c0,0,2.4,4.6,13.8,4.4S38,84.8,38,84.8L37.3,79.9z"/>
	<rect x="10.2" y="60.7" class="st1" width="25.4" height="10.3"/>
	<g>
		<g>
			<path class="st2" d="M41.2,6.3c0.3-0.5,0.1-1.1-0.4-1.3c-4.7-2.7-9.9-4.3-15.3-4.5c-1.5-0.1-3.1-0.1-4.5,0.4
				c-0.3-0.4-0.9-0.6-1.4-0.2c-0.4,0-0.7,0.2-0.8,0.7c0,0.1,0,0.2-0.1,0.3c-0.7,0.9-1.2,1.8-1.5,2.9c0,0,0,0.1,0,0.1
				c-0.2,0.4-0.4,0.8-0.5,1.1c-0.5,0.1-1,0.3-1.5,0.6c-0.8,0.5-1.3,1.8-2.2,1.9c-0.1,0-0.1,0-0.2,0c-1.4,0.1-2.8,0.3-4.2,0.5
				C8,8.4,7.7,7.7,7.7,7c0-0.1,0-0.2,0-0.3C8.6,6.1,9.6,5.5,10.5,5c1.6-0.8,3.2-1.5,4.8-2.2c0.1,0,0.2-0.1,0.3-0.1
				c0,0,0.1-0.1,0.1-0.1c0,0,0.1,0,0.1,0c0.1,0,0.2-0.1,0.3-0.1c0.3-0.2,0.6-0.4,0.9-0.5c0.9-0.5,0.3-1.8-0.5-1.8
				c-0.2,0-0.4,0-0.6,0.1c-0.1,0.1-0.3,0.2-0.4,0.3c-0.2,0.1-0.4,0.1-0.6,0.2c-0.2,0-0.3,0-0.5,0.1c0,0,0,0-0.1,0c0,0,0,0,0.1,0
				c0,0,0,0-0.1,0c-0.4,0-0.7,0.2-0.8,0.5C12.2,2,11,2.6,9.8,3.2C8,4.2,6.2,5.2,4.5,6.4C4.3,6.6,4.1,6.9,4.1,7.1
				C3.9,7.2,3.6,7.3,3.4,7.5C3,7.3,2.4,7.3,2.2,7.8C1.8,8.6,2.1,9.3,2.8,9.7c0.6,0.3,1.2,0.1,1.8,0.3c-0.1,0.1-0.1,0.3-0.1,0.5
				c0,0.4,0.1,0.7,0.4,1c0.1,0.1,0.2,0.2,0.3,0.2c0.2,0.1,0.4,0.2,0.7,0.2l0,0C6,12,6.2,12,6.5,12c2.2-0.2,4.5-0.5,6.7-0.7
				c-0.9,1.6-0.8,6.2-1,6.7c-0.1,0.3-0.5,1.5-0.4,1.8c0.1,4.2,0.5,8.4,0.7,12.5c0.2,4.2,0.4,8.4,0.6,12.5c0.3,8.4,0.5,16.7,0.6,25.1
				c0,1,0.9,1.5,1.7,1.4c0.1,0.1,0.2,0.1,0.3,0.1c2.9,0.8,5.9,1.1,8.9,0.9c3-0.2,6.2-0.8,8.8-2.2c0.7-0.3,0.8-1,0.7-1.7
				c0-0.1,0.1-0.3,0.1-0.4c0.2-6.7-0.1-28.6,0-32.7c0.1-5.4,0-10.7-0.2-16.1c0-0.1,0-0.2,0-0.3c0.1-0.3,0.1-0.6,0.2-0.9
				c0-0.2,0-0.3,0-0.4c0.4-2.1,0.5-4.3,0.5-6.5c1.4,0.1,2.8,0.2,4.1,0.4c0,0,0.4,0.1,1.4-0.5c0,0,1.6-3.9,1.1-3.8
				C40.7,7.5,41,6.7,41.2,6.3z M26.1,41.5c-2.9-0.1-5.8,0.1-8.6,0.7c-0.1-2.2-0.2-4.5-0.3-6.7c-0.1-2.8-0.2-5.6-0.4-8.3
				c2.1,0,4.1-0.1,6.2-0.2c1.5,0,3-0.1,4.5-0.1c0.1,2.4,0.3,4.8,0.4,7.3c0.1,2.5,0.1,4.9,0,7.4C27.4,41.5,26.8,41.5,26.1,41.5z
				 M23.4,24.1c-2.8,0.1-5.6,0.1-8.5,0.3c-0.1-1.3-0.2-2.6-0.3-3.9c0,0,0.1,0,0.1-0.1c0.2,0.1,0.4,0.2,0.7,0.2
				c5.1-0.3,15.4-0.4,15.4-0.1c0,0.2,0,0.4,0.1,0.5c0,0.9,0.1,1.8,0.1,2.7C28.4,23.8,25.9,24,23.4,24.1z"/>
			<g>
				<path class="st3" d="M43.1,5.9c-0.9-1.1-2.6-1.6-3.9-2.1c-3.1-1.3-6.2-2.5-9.4-3.6C29.3,0,17.3-0.1,14.5,0.3
					c-0.4,0.1-6.7,3.3-9.1,4.3c-1.3,0.5-5,2.3-5.1,2.5c-0.7,0.2,0.1,1.8,0.2,2c0,0,0,0.1,0.1,0.1c0.1,0.4,0.3,0.7,0.7,1.1
					c0.3,0.3,0.8,0.5,1.2,0.5c0.4,0,1.2-0.2,1.6,0c0.3,0.2,0.5,0.6,0.7,0.9c0.4,0.4,0.8,0.7,1.4,0.9C7.1,13,8.1,13,9,12.9
					c0,0.2,0.1,0.5,0.1,0.7c0,0,0,0.1,0,0.1c-0.5,0.2-1.1,0.4-1.6,0.6c-0.5,0.2-0.9,0.5-1,1c-0.1,0.6,0.4,1,0.9,1.2
					c0.3,0.1,0.5,0.3,0.8,0.4c-0.1,0.1-0.1,0.2-0.1,0.4c0,0.5,0.1,1,0.2,1.5c0,0.3,0.2,0.5,0.4,0.6c-0.1,6.5,0,13.1,0.1,19.6
					C8.9,45.6,9,52.3,9.2,59.1c0.1,3.1,0.2,6.3,0.3,9.4C8.9,68.6,8.3,69,8,69.6c-0.3,0.8-0.2,1.6-0.2,2.4c0,0.9,0,1.9,0,2.8
					c0,1.9,0,3.7,0,5.6c0,1.9-0.1,3.9,0.1,5.8c0.1,1.2,10.8,3.9,15.8,3.8c5.4-0.1,10.6-1.8,15.1-4.6c0.5-0.3,0.1-4,0.1-5.5
					c0-1.7-0.1-3.4-0.1-5.1c0-1.6,0-3.3-0.1-4.9c0-0.6-0.3-1.3-0.9-1.7c-0.3-0.2-0.7-0.3-1.1-0.3c-0.1-13.4-0.1-26.7-0.2-40.1
					c0-3.2,0-6.4-0.1-9.6c0.2-0.1,0.3-0.3,0.3-0.5c0.1-0.2,0.1-0.5,0.1-0.8c0.1-0.3-0.1-0.6-0.3-0.7c0.2-0.1,0.4-0.2,0.7-0.3
					c0.5-0.3,0.7-0.9,0.7-1.4c-0.1-0.6-0.6-1.2-1.2-1.5c0-0.3,0.1-0.5,0.1-0.8c2.3,0.2,4.8-0.8,6.1-2.6c0-0.1,0.4-0.4,0.5-0.5
					C44.1,8.2,43.9,6.8,43.1,5.9z M14.7,2c0,0,5.1-0.5,7.9-0.4c2.8,0.1,6.9,0.4,7.8,0.3c2.2,0.9,9.1,3.5,10.3,4.1
					C29.2,4.1,17.4,4.1,5.9,6C6.3,5.8,14.7,2,14.7,2z M36.8,69.5c0.2,0.2,0.2,0.7,0.2,0.8c0,0.6,0,1.3,0,1.9c0,1.4,0.1,2.8,0.1,4.3
					c0,1.4,0.1,2.8,0.1,4.3c0,1.3,0,2.6,0.1,3.9c-4.1,2.5-8.9,3.9-13.7,4c-5,0.1-9.8-1.2-14.1-3.5c0-1.2,0-2.3-0.1-3.5
					c0-1.5,0-3.1,0-4.6c0-1.5,0-3.1-0.1-4.6c0-0.7-0.1-1.3,0-2c0-0.1,0.1-0.2,0.1-0.3c0,0.3,0.1,0.5,0.4,0.7
					c4.1,1.9,8.9,2.6,13.5,2.4c4.6-0.2,9.2-1.4,13.2-3.4C36.7,69.7,36.8,69.6,36.8,69.5z M10.3,16.2c1.5-0.4,15.3-1.4,24.4-0.1
					c0.6,0.1,1.4,0.1,1.4,0.9c-0.1,0.8-1,0.5-1,0.5S18,16,9.8,17.7C9.8,17.6,8.8,16.6,10.3,16.2z M11.2,69.4
					C11.2,69.4,11.2,69.3,11.2,69.4c-0.5-13.4-0.8-26.8-0.8-40.1c0-3.4,0-6.8,0-10.1c8-1.7,16.4-2,24.5-0.8c-0.1,3.2,0,6.4,0,9.5
					c0,3.4,0,6.8,0.1,10.1c0,6.8,0.1,13.5,0.1,20.3c0,3.4,0,6.9,0.1,10.3c0,0.1,0,0.1,0,0.2c-3.7,1.8-7.7,2.7-11.8,2.9
					c-4.2,0.2-8.2-0.6-12-2C11.3,69.6,11.2,69.5,11.2,69.4z M41.7,9.1c-0.9,0.8-3.3,2-4.8,1.8c-0.1,0-4.6-0.3-6.7-0.4
					c-2.2-0.1-4.4-0.2-6.6-0.3c-1,0-0.9,1.4,0.1,1.4c2.1,0.1,4.3,0.2,6.4,0.3c1.1,0.1,2.1,0.1,3.2,0.2c0.7,0,1.3,0.1,2,0.1
					c-0.1,0.3-0.4,1.9-0.2,2.2c-8.3-0.5-16.7-0.7-25,0.3c0.3-0.2,0.6-2,0.6-2.3c1.3-0.2,2.5-0.4,3.8-0.6c1.1-0.2,0.8-1.7-0.3-1.5
					c-1.9,0.4-5.8,1-5.9,1.1c-0.5,0-1,0-1.5-0.2c-0.7-0.3-1-1-1.5-1.5C4.6,9.2,3.6,9.3,2.8,9.3c-0.6,0-0.8-0.6-0.7-1
					c0,0,0-0.1,0-0.1c13-2.7,26.6-2.9,39.7-0.5c0.1,0,0.3,0,0.4,0.1c0,0.2,0,0.4-0.1,0.6C42.1,8.5,42,8.9,41.7,9.1z"/>
				<path class="st3" d="M28.8,41c0,0,0-0.1,0-0.1c0.1-1.2,0-2.4-0.1-3.6c0-1.2,0-2.4-0.1-3.6c0-1.2,0-2.4-0.1-3.6
					c0-1.2,0-2.4-0.1-3.6c0-0.9-2.3-0.8-2.9-0.8c-1,0-2.1,0.1-3.1,0.2c-2.1,0.1-4.2,0.2-6.3,0.3c-0.9,0.1-0.1,5.7,0,7.9
					c0.1,2.4,0.1,4.8,0.4,7.2c0,0.1,0,0.2,0.1,0.2c0,0.4,0.3,0.7,0.8,0.7c1.8-0.2,3.5-0.3,5.3-0.3c0.9,0,1.7,0,2.6,0
					c0.9,0,1.8,0.2,2.8,0.2C28.7,42,28.9,41.4,28.8,41z M22.9,40.3c-1.6,0-3.1,0.1-4.7,0.3c0-2.2-0.2-4.5-0.3-6.7
					c-0.1-2.1-0.2-4.3-0.3-6.4c1.5-0.1,3.1-0.2,4.6-0.2c0.9,0,1.9-0.1,2.8-0.1c0.7,0,1.3-0.1,2,0.1c0,0.9,0,1.9,0.1,2.8
					c0,1.2,0,2.4,0.1,3.6l0.1,3.6c0,1,0,2,0,3.1c-0.5,0-1,0-1.5-0.1C24.7,40.3,23.8,40.3,22.9,40.3z"/>
				<path class="st3" d="M27,47.8c-0.8-0.5-2-0.2-2.8,0.1c-0.3,0.1-0.6,0.6-0.8,0.7c-0.1-0.7-0.1-1.4-0.2-2.1
					c-0.1-1-1.6-0.9-1.6,0.1c0,0.4,0,0.9,0,1.3c-1-0.4-2.3-0.3-3.3,0.4c-1,0.8-1.1,1.9-0.6,2.9c0.3,0.5,0.7,1,1.2,1.4
					c0.3,0.3,0.5,0.5,0.8,0.8c-0.5,0.3-0.2,1.4,0.5,1.3c0.9-0.1,1.8-0.2,2.8-0.3c1-0.1,2-0.1,3-0.2c0.4,0,0.7-0.2,0.7-0.6
					c0.1-0.3-0.2-0.8-0.6-0.9c0,0,0-0.1,0-0.1c0,0,0-0.1,0-0.1c0-0.3,0.3-0.6,0.6-0.8c0.4-0.3,0.7-0.7,1-1.1
					C28.2,49.8,27.9,48.4,27,47.8z M25.6,50.8c-0.5,0.5-1.1,1.5-1,2.2c-0.5,0-1.1,0-1.5,0c-0.6,0-1.4,0.2-1.9,0.3
					c-0.5-0.5-2.4-2.8-2.1-3.4c0.3-0.9,2.3-0.9,2.5,0c0,0.2,0,0.3,0,0.5c0,0.4,1,1.4,1.9,0.5c0.3-0.6,0.9-1.5,1.5-1.8
					c0.3-0.1,1.7-0.2,1.7,0.3C26.6,49.9,25.9,50.5,25.6,50.8z"/>
				<path class="st3" d="M31,20.3c0-0.4-0.4-0.7-0.9-0.7c-5.4,0-10.8,0-16.1,0.1c-0.8-0.1-0.9,0.8-0.9,1c0,0.6,0,1.2,0.1,1.7
					c0,0.6,0,1.2,0.1,1.7c0,0.2,0.3,0.8,1,0.9c5.3-0.2,10.6-0.4,15.8-0.7c0.2,0,0.3-0.1,0.4-0.1c0.2-0.1,0.4-0.2,0.4-0.5
					C31.1,22.6,31,21.4,31,20.3z M29.4,21.1c0,0.6,0,1.2,0,1.8c-4.8,0.2-9.6,0.4-14.5,0.7c0-0.4-0.1-0.8-0.1-1.2
					c0-0.4-0.1-0.8-0.1-1.2C19.6,21.2,24.5,21.1,29.4,21.1z"/>
			</g>
		</g>
		<g>
			<path class="st3" d="M19.7,96c-0.1,0-0.2,0-0.3-0.1c-0.3-0.2-0.6-0.5-1-0.8c-0.2-0.2-0.5-0.5-0.6-0.6c-0.3-0.1-0.4-0.5-0.3-0.8
				s0.4-0.5,0.7-0.4c2.3,0.5,4.8,0.6,7.1,0.3l-12.3-1.3c-0.3,0-0.6-0.3-0.6-0.6c0-0.3,0.3-0.6,0.6-0.6c1.1-0.1,2.2-0.1,3.3-0.2
				c6.6-0.3,13.4-0.6,19.8-2c-4,0.6-8.1,1.1-11.8,1.1c-7,0.1-14.1-0.7-21.2-2.3c-0.3-0.1-0.6-0.4-0.5-0.8c0.1-0.3,0.4-0.5,0.8-0.5
				c7,1.6,14,2.4,20.9,2.3c5.8-0.1,12.6-1.2,18.5-2.2l2.2-0.4c0.3-0.1,0.6,0.1,0.7,0.4c0.1,0.3-0.1,0.6-0.4,0.8
				c-7.5,3.2-15.7,4-23.9,4.5l8.1,0.8c0.3,0,0.5,0.3,0.6,0.6c0,0.3-0.2,0.6-0.5,0.7c-3.1,0.9-6.3,1.2-9.5,0.9
				c0.2,0.2,0.2,0.5,0.1,0.7C20.2,95.8,20,96,19.7,96z"/>
		</g>
	</g>
</g>
</svg>
